HIERARCHY
ROOT joint_Root
{
	OFFSET 0.0 0.0 0.0
	CHANNELS 6 Xposition Yposition Zposition Zrotation Xrotation Yrotation 
	JOINT Hips
	{
		OFFSET 4.5925 91.4895 -427.239
		CHANNELS 6 Xposition Yposition Zposition Zrotation Xrotation Yrotation 
		JOINT Spine
		{
			OFFSET 15.7357 0.0 0.0
			CHANNELS 6 Xposition Yposition Zposition Zrotation Xrotation Yrotation 
			JOINT Chest
			{
				OFFSET 8.98455 -0.406207 0.0
				CHANNELS 6 Xposition Yposition Zposition Zrotation Xrotation Yrotation 
				JOINT Neck
				{
					OFFSET 16.3773 0.0 0.0
					CHANNELS 6 Xposition Yposition Zposition Zrotation Xrotation Yrotation 
					JOINT Head
					{
						OFFSET 6.45672 0.0 0.0
						CHANNELS 6 Xposition Yposition Zposition Zrotation Xrotation Yrotation 
						End Site
						{
							OFFSET 0.0 0.0 0.0
						}
					}
				}
				JOINT Shoulder_L
				{
					OFFSET 12.9942 -0.242716 4.98039
					CHANNELS 6 Xposition Yposition Zposition Zrotation Xrotation Yrotation 
					JOINT UpperArm_L
					{
						OFFSET 5.34809 0.0 0.0
						CHANNELS 6 Xposition Yposition Zposition Zrotation Xrotation Yrotation 
						JOINT LowerArm_L
						{
							OFFSET 24.3286 1.87007e-05 0.0
							CHANNELS 6 Xposition Yposition Zposition Zrotation Xrotation Yrotation 
							JOINT Hand_L
							{
								OFFSET 22.2916 0.0 0.0
								CHANNELS 6 Xposition Yposition Zposition Zrotation Xrotation Yrotation 
								End Site
								{
									OFFSET 0.0 0.0 0.0
								}
							}
						}
					}
				}
				JOINT Shoulder_R
				{
					OFFSET 12.9945 -0.242716 -4.98039
					CHANNELS 6 Xposition Yposition Zposition Zrotation Xrotation Yrotation 
					JOINT UpperArm_R
					{
						OFFSET -5.34813 0.0 0.0
						CHANNELS 6 Xposition Yposition Zposition Zrotation Xrotation Yrotation 
						JOINT LowerArm_R
						{
							OFFSET -24.3289 0.000322201 0.0
							CHANNELS 6 Xposition Yposition Zposition Zrotation Xrotation Yrotation 
							JOINT Hand_R
							{
								OFFSET -22.2915 -0.000108084 0.0
								CHANNELS 6 Xposition Yposition Zposition Zrotation Xrotation Yrotation 
								End Site
								{
									OFFSET 0.0 0.0 0.0
								}
							}
						}
					}
				}
			}
		}
		JOINT UpperLeg_L
		{
			OFFSET -2.19248 -6.46944 0.0
			CHANNELS 6 Xposition Yposition Zposition Zrotation Xrotation Yrotation 
			JOINT LowerLeg_L
			{
				OFFSET 39.0811 0.0 -1.23785e-05
				CHANNELS 6 Xposition Yposition Zposition Zrotation Xrotation Yrotation 
				JOINT Foot_L
				{
					OFFSET 40.9854 0.0 -1.26872e-05
					CHANNELS 6 Xposition Yposition Zposition Zrotation Xrotation Yrotation 
					JOINT Toes_L
					{
						OFFSET 11.7543 0.0 0.0
						CHANNELS 6 Xposition Yposition Zposition Zrotation Xrotation Yrotation 
						End Site
						{
							OFFSET 0.0 0.0 0.0
						}
					}
				}
			}
		}
		JOINT UpperLeg_R
		{
			OFFSET -2.19251 6.46944 0.0
			CHANNELS 6 Xposition Yposition Zposition Zrotation Xrotation Yrotation 
			JOINT LowerLeg_R
			{
				OFFSET -39.0811 -0.00228153 -0.0401928
				CHANNELS 6 Xposition Yposition Zposition Zrotation Xrotation Yrotation 
				JOINT Foot_R
				{
					OFFSET -40.9854 0.0 0.0
					CHANNELS 6 Xposition Yposition Zposition Zrotation Xrotation Yrotation 
					JOINT Toes_R
					{
						OFFSET -11.7543 0.0 0.0
						CHANNELS 6 Xposition Yposition Zposition Zrotation Xrotation Yrotation 
						End Site
						{
							OFFSET 0.0 0.0 0.0
						}
					}
				}
			}
		}
	}
}
MOTION
Frames:	8
Frame Time:	0.0333333
0.000000 0.000000 0.000000 0.000000 0.000000 -0.000000 0.339369 89.142500 -49.856800 89.700100 -1.709050 3.600510 15.735700 0.000005 -0.000001 88.618900 81.135700 -87.945700 8.984550 -0.406207 -0.000000 9.960350 -0.411763 1.381220 16.377300 -0.000001 -0.000001 0.152826 -3.423600 1.473750 6.456720 -0.000001 -0.000000 -2.938050 -2.811940 1.837880 12.994200 -0.242716 4.980390 -91.020400 3.470890 -73.605600 5.348090 -0.000007 -0.000001 -63.681600 31.408800 -17.693100 24.328600 0.000019 0.000005 9.593430 15.862500 -31.731600 22.291600 -0.000001 0.000005 13.526600 5.233230 1.871820 12.994500 -0.242716 -4.980390 88.308000 10.266200 -80.589200 -5.348130 -0.000001 -0.000004 -56.351200 28.702500 -15.790200 -24.328900 0.000322 -0.000009 0.803654 1.499870 -28.219400 -22.291500 -0.000108 -0.000004 16.403900 5.401630 -2.990360 -2.192480 -6.469440 -0.000000 -176.917000 -6.750060 -17.734800 39.081100 -0.000007 -0.000012 0.086180 -0.031383 69.987100 40.985400 -0.000006 -0.000013 -0.256476 -0.160736 -54.826700 11.754300 -0.000000 0.000003 -0.003972 -0.051158 -18.657700 -2.192510 6.469440 -0.000001 -177.628000 15.145000 164.417000 -39.081100 -0.002282 -0.040193 0.059852 -0.067439 39.993100 -40.985400 0.000008 0.000006 10.501200 3.275570 -72.276600 -11.754300 -0.000006 -0.000006 -0.003350 -0.044501 -18.383000
0.000000 0.000000 0.000000 0.000000 0.000000 -0.000000 0.344226 89.489200 -47.366800 90.253400 -2.099440 3.530480 15.735700 0.000005 -0.000001 90.229800 81.111200 -89.782200 8.984550 -0.406207 -0.000000 10.011300 0.079614 0.887587 16.377300 -0.000001 -0.000001 0.084271 -3.326970 1.591450 6.456720 -0.000001 -0.000000 -3.007380 -2.863280 2.046630 12.994200 -0.242716 4.980390 -90.997400 3.379580 -73.547200 5.348090 -0.000007 -0.000001 -65.500100 32.166800 -15.455000 24.328600 0.000019 0.000005 8.975660 16.524800 -29.043800 22.291600 -0.000001 0.000005 13.241100 5.228670 1.990020 12.994500 -0.242716 -4.980390 88.400900 9.967380 -80.838000 -5.348130 -0.000001 -0.000004 -55.506300 28.872300 -18.099000 -24.328900 0.000322 -0.000009 1.190170 2.315840 -27.231300 -22.291500 -0.000108 -0.000004 16.602600 5.398680 -2.894650 -2.192480 -6.469440 -0.000000 -178.045000 -7.475480 -20.503400 39.081100 -0.000007 -0.000012 0.070170 -0.026975 68.968000 40.985400 -0.000006 -0.000013 0.420392 -2.570210 -57.285500 11.754300 -0.000000 0.000003 -0.003412 -0.045189 -18.414700 -2.192510 6.469440 -0.000001 -178.841000 15.781000 166.797000 -39.081100 -0.002282 -0.040193 0.052817 -0.061493 38.852800 -40.985400 0.000008 0.000006 10.408000 4.339330 -73.036600 -11.754300 -0.000006 -0.000006 -0.002915 -0.039638 -18.185100
0.000000 0.000000 0.000000 0.000000 0.000000 -0.000000 0.378326 89.879300 -45.020000 90.653800 -2.419710 3.071560 15.735700 0.000005 -0.000001 91.319100 81.227100 -91.074300 8.984550 -0.406207 -0.000000 9.774560 0.405740 0.454518 16.377300 -0.000001 -0.000001 0.086900 -3.226600 1.693990 6.456720 -0.000001 -0.000000 -3.116090 -2.832540 1.927140 12.994200 -0.242716 4.980390 -90.933000 3.151970 -73.501100 5.348090 -0.000007 -0.000001 -67.350200 32.648000 -13.195000 24.328600 0.000019 0.000005 7.945180 16.819000 -25.749700 22.291600 -0.000001 0.000005 12.242100 5.234310 1.843580 12.994500 -0.242716 -4.980390 88.538500 9.357750 -81.082200 -5.348130 -0.000001 -0.000004 -55.802300 28.328300 -19.886700 -24.328900 0.000322 -0.000009 1.299480 2.620890 -26.403700 -22.291500 -0.000108 -0.000004 16.689200 5.395670 -2.797310 -2.192480 -6.469440 -0.000000 -179.247000 -8.013310 -22.739500 39.081100 -0.000007 -0.000012 0.044342 -0.021086 64.561800 40.985400 -0.000006 -0.000013 2.459450 -3.767010 -59.568100 11.754300 -0.000000 0.000003 -0.003278 -0.043710 -18.354500 -2.192510 6.469440 -0.000001 -179.814000 16.362800 168.906000 -39.081100 -0.002282 -0.040193 0.042506 -0.051775 37.144100 -40.985400 0.000008 0.000006 10.135500 5.368780 -73.328600 -11.754300 -0.000006 -0.000006 -0.002787 -0.038172 -18.125400
0.000000 0.000000 0.000000 0.000000 0.000000 -0.000000 0.461269 90.149600 -42.766200 91.026500 -2.897550 2.426500 15.735700 0.000005 -0.000001 92.603200 81.361500 -92.570300 8.984550 -0.406207 -0.000000 9.493460 0.780679 0.001022 16.377300 -0.000001 -0.000001 -0.111096 -3.146580 1.663800 6.456720 -0.000001 -0.000000 -3.264120 -2.823100 1.733400 12.994200 -0.242716 4.980390 -90.933500 3.134570 -73.406200 5.348090 -0.000007 -0.000001 -68.533200 33.364600 -11.401700 24.328600 0.000019 0.000005 7.255260 17.878200 -22.524000 22.291600 -0.000001 0.000005 10.948100 5.223420 2.125510 12.994500 -0.242716 -4.980390 88.628200 8.892350 -81.193800 -5.348130 -0.000001 -0.000004 -56.120000 27.598900 -21.379400 -24.328900 0.000322 -0.000009 1.011570 2.054910 -26.241100 -22.291500 -0.000108 -0.000004 16.919600 5.398100 -2.875930 -2.192480 -6.469440 -0.000000 179.731000 -8.383900 -24.104400 39.081100 -0.000007 -0.000012 0.031326 -0.020342 56.996400 40.985400 -0.000006 -0.000013 2.156470 -3.482470 -61.198400 11.754300 -0.000000 0.000003 -0.003761 -0.048934 -18.567200 -2.192510 6.469440 -0.000001 179.299000 16.752800 170.582000 -39.081100 -0.002282 -0.040193 0.036051 -0.045608 35.691000 -40.985400 0.000008 0.000006 10.090500 6.243460 -73.664800 -11.754300 -0.000006 -0.000006 -0.284417 -0.364692 -18.278100
0.000000 0.000000 0.000000 0.000000 0.000000 -0.000000 0.610228 90.267500 -40.583300 91.223400 -3.586990 1.632720 15.735700 0.000005 -0.000001 94.191400 81.528800 -94.318900 8.984550 -0.406207 -0.000000 9.134030 1.230110 -0.353163 16.377300 -0.000001 -0.000001 -0.395380 -3.019100 1.597650 6.456720 -0.000001 -0.000000 -3.422330 -2.775320 1.460140 12.994200 -0.242716 4.980390 -90.945200 3.156600 -73.320600 5.348090 -0.000007 -0.000001 -69.723700 33.411400 -9.694170 24.328600 0.000019 0.000005 6.877000 19.842900 -19.560900 22.291600 -0.000001 0.000005 9.808130 5.204960 2.595200 12.994500 -0.242716 -4.980390 88.697200 8.564700 -81.317800 -5.348130 -0.000001 -0.000004 -56.243400 27.090000 -22.355600 -24.328900 0.000322 -0.000009 0.625517 1.226480 -27.066100 -22.291500 -0.000108 -0.000004 17.179800 5.402240 -3.010190 -2.192480 -6.469440 -0.000000 178.937000 -8.873700 -24.655100 39.081100 -0.000007 -0.000012 0.021115 -0.019740 46.923400 40.985400 -0.000006 -0.000013 1.313960 -2.366470 -61.303400 11.754300 -0.000000 0.000003 -0.003384 -0.044880 -18.402100 -2.192510 6.469440 -0.000001 178.606000 16.712000 171.793000 -39.081100 -0.002282 -0.040193 0.030308 -0.039000 34.711800 -40.985400 0.000008 0.000006 9.892980 7.001500 -73.967300 -11.754300 -0.000006 -0.000006 -0.686550 -0.832407 -18.733900
0.000000 0.000000 0.000000 0.000000 0.000000 -0.000000 0.801839 90.195000 -38.382900 91.073000 -4.369450 0.768233 15.735700 0.000005 -0.000001 95.996800 81.677200 -96.171400 8.984550 -0.406207 -0.000000 8.794040 1.728690 -0.481854 16.377300 -0.000001 -0.000001 -0.752777 -2.834730 1.523590 6.456720 -0.000001 -0.000000 -3.745200 -2.677250 1.230240 12.994200 -0.242716 4.980390 -90.917200 3.054800 -73.278400 5.348090 -0.000007 -0.000001 -71.065900 32.777900 -8.118750 24.328600 0.000019 0.000005 6.243100 21.219900 -16.817300 22.291600 -0.000001 0.000005 9.165930 5.185760 3.073960 12.994500 -0.242716 -4.980390 88.756600 8.265980 -81.414700 -5.348130 -0.000001 -0.000004 -56.238900 26.748000 -22.834000 -24.328900 0.000322 -0.000009 0.397341 0.724727 -28.804200 -22.291500 -0.000108 -0.000004 17.722700 5.410550 -3.283140 -2.192480 -6.469440 -0.000000 178.529000 -9.404890 -24.721700 39.081100 -0.000007 -0.000012 0.009701 -0.013376 35.945900 40.985400 -0.000006 -0.000013 -0.228019 -0.654601 -60.657600 11.754300 -0.000000 0.000003 -0.002898 -0.039449 -18.181100 -2.192510 6.469440 -0.000001 178.282000 16.561500 172.598000 -39.081100 -0.002282 -0.040193 0.026841 -0.034484 34.328700 -40.985400 0.000008 0.000006 9.883640 7.514320 -74.404000 -11.754300 -0.000006 -0.000006 -0.941633 -1.119640 -19.448700
0.000000 0.000000 0.000000 0.000000 0.000000 -0.000000 1.062440 89.942100 -35.987600 90.922500 -5.134700 0.198384 15.735700 0.000005 -0.000001 97.290000 81.703900 -97.524200 8.984550 -0.406207 -0.000000 8.700700 2.093090 -0.627208 16.377300 -0.000001 -0.000001 -1.060110 -2.639560 1.536340 6.456720 -0.000001 -0.000000 -4.140990 -2.472460 1.121890 12.994200 -0.242716 4.980390 -90.852700 2.849010 -73.329400 5.348090 -0.000007 -0.000001 -72.304000 31.750900 -6.860890 24.328600 0.000019 0.000005 5.431090 21.748400 -14.391000 22.291600 -0.000001 0.000005 9.008890 5.169200 3.480250 12.994500 -0.242716 -4.980390 88.809100 8.093160 -81.600200 -5.348130 -0.000001 -0.000004 -55.894000 26.770300 -23.017200 -24.328900 0.000322 -0.000009 0.159970 0.267493 -31.063700 -22.291500 -0.000108 -0.000004 18.297400 5.418310 -3.541760 -2.192480 -6.469440 -0.000000 177.942000 -8.852290 -26.662300 39.081100 -0.000007 -0.000012 0.090064 -0.155630 30.058200 40.985400 -0.000006 -0.000013 1.902000 1.084690 -59.105000 11.754300 -0.000000 0.000003 -0.002553 -0.035441 -18.018000 -2.192510 6.469440 -0.000001 177.766000 16.206200 173.324000 -39.081100 -0.002282 -0.040193 0.021629 -0.026346 34.839400 -40.985400 0.000008 0.000006 9.590220 7.855110 -74.736700 -11.754300 -0.000006 -0.000006 -1.570320 -1.812660 -20.473500
0.000000 0.000000 0.000000 0.000000 0.000000 -0.000000 1.479120 89.565700 -33.329000 91.373900 -5.474890 -0.265097 15.735700 0.000005 -0.000001 96.895700 81.731200 -97.390600 8.984550 -0.406207 -0.000000 8.664530 1.971940 -1.138450 16.377300 -0.000001 -0.000001 -1.066760 -2.484750 1.659200 6.456720 -0.000001 -0.000000 -4.577270 -2.184970 1.155010 12.994200 -0.242716 4.980390 -90.833300 2.819020 -73.524800 5.348090 -0.000007 -0.000001 -72.896500 30.853200 -6.242460 24.328600 0.000019 0.000005 4.649450 21.898900 -12.300700 22.291600 -0.000001 0.000005 8.797810 5.158880 3.730130 12.994500 -0.242716 -4.980390 88.801300 8.257710 -81.711000 -5.348130 -0.000001 -0.000004 -55.037000 27.041800 -23.319100 -24.328900 0.000322 -0.000009 -0.094246 -0.143198 -33.038200 -22.291500 -0.000108 -0.000004 18.630500 5.429880 -3.934560 -2.192480 -6.469440 -0.000000 176.664000 -9.037210 -28.443100 39.081100 -0.000007 -0.000012 0.071507 -0.130983 28.631300 40.985400 -0.000006 -0.000013 2.623020 1.381710 -56.235100 11.754300 -0.000000 0.000003 -0.002512 -0.034954 -17.998200 -2.192510 6.469440 -0.000001 176.584000 15.464800 173.659000 -39.081100 -0.002282 -0.040193 0.021579 -0.024620 36.611100 -40.985400 0.000008 0.000006 9.086600 7.396740 -75.302000 -11.754300 -0.000006 -0.000006 -0.914540 -1.062670 -21.264400
